# xmcd
#
# Track frame offsets:
#	182
#	9977
#	23812
#	36155
#	52767
#	66232
#	80177
#	89807
#	106135
#	120940
#	135515
#	143032
#	157925
#	171902
#	185665
#	200390
#	208737
#	223570
#
# Disc length: 3157 seconds
#
# Revision: 1
# Processed by: cddbd v1.5.1PL0 Copyright (c) Steve Scherf et al.
# Submitted via: EasyCDDAExtractor 6.5.0.1
#
DISCID=f60c5312
DTITLE=Various Artist - Mostly Celtic
DYEAR=1997
DGENRE=Pop-Folk
TTITLE0=Sam Cunningham and John Drake - Westering Home
TTITLE1=VariousSam Cunningham and John Drake - McGregors' Gathering
TTITLE2=Sam Cunningham and John Drake - The Garden Where The Praties Grow
TTITLE3=Sam Cunningham and John Drake - My Ain Folk
TTITLE4=Sam Cunningham and John Drake - Tra Bo Dau (Where Two Hearts are True)
TTITLE5=Sam Cunningham and John Drake - How Are Things In Glocca Morra
TTITLE6=Sam Cunningham and John Drake - Love In A Home
TTITLE7=Sam Cunningham and John Drake - Highland Cathedral
TTITLE8=Sam Cunningham and John Drake - Scotland My Home
TTITLE9=Sam Cunningham and John Drake - Loch Lomond
TTITLE10=Sam Cunningham and John Drake - My Little Welsh Home
TTITLE11=Sam Cunningham and John Drake - Bring Him Home
TTITLE12=Sam Cunningham and John Drake - Mary Shaw
TTITLE13=Sam Cunningham and John Drake - The Mountains O'Mourne
TTITLE14=Sam Cunningham and John Drake - Danny Boy
TTITLE15=Sam Cunningham and John Drake - Bonnie Wee Jeanie McColl
TTITLE16=Sam Cunningham and John Drake - The Lights of Adelaide
TTITLE17=Sam Cunningham and John Drake - I Still Call Australia Home
EXTD=
EXTT0=
EXTT1=
EXTT2=
EXTT3=
EXTT4=
EXTT5=
EXTT6=
EXTT7=
EXTT8=
EXTT9=
EXTT10=
EXTT11=
EXTT12=
EXTT13=
EXTT14=
EXTT15=
EXTT16=
EXTT17=
PLAYORDER=
